<?xml version="1.0" ?><!DOCTYPE svg  PUBLIC '-//W3C//DTD SVG 1.1//EN'  'http://www.w3.org/Graphics/SVG/1.1/DTD/svg11.dtd'><svg enable-background="new 0 0 100 100" height="100px" id="Layer_1" version="1.1" viewBox="0 0 100 100" width="100px" xml:space="preserve" xmlns="http://www.w3.org/2000/svg" xmlns:xlink="http://www.w3.org/1999/xlink"><g><path d="M75.032,30.935h-9.692c-0.829,0-1.5,0.671-1.5,1.5v5.184c0,0.829,0.671,1.5,1.5,1.5h9.692   c0.829,0,1.5-0.671,1.5-1.5v-5.184C76.532,31.606,75.86,30.935,75.032,30.935z M73.532,36.119h-6.692v-2.184h6.692V36.119z" fill="#434E66"/><path d="M76.346,25.502H63.071l-0.402-4.851c-0.056-2.707-3.276-4.429-5.5-4.429H42.831   c-2.223,0-5.444,1.723-5.5,4.429l-0.402,4.851H23.654c-4.136,0-7.5,3.364-7.5,7.5V69.74c0,4.136,3.364,7.5,7.5,7.5h52.691   c4.136,0,7.5-3.364,7.5-7.5V33.002C83.846,28.867,80.481,25.502,76.346,25.502z M80.846,69.74c0,2.481-2.019,4.5-4.5,4.5H23.654   c-2.481,0-4.5-2.019-4.5-4.5V44.479h10.754c0.829,0,1.5-0.671,1.5-1.5s-0.671-1.5-1.5-1.5H19.154v-8.477c0-2.481,2.019-4.5,4.5-4.5   H38.31c0.78,0,1.43-0.598,1.495-1.376l0.521-6.28c0.003-0.041,0.005-0.083,0.005-0.124c0-0.557,1.421-1.5,2.5-1.5h14.338   c1.079,0,2.5,0.943,2.5,1.5c0,0.042,0.002,0.083,0.005,0.124l0.521,6.28c0.064,0.778,0.714,1.376,1.495,1.376h14.656   c2.481,0,4.5,2.019,4.5,4.5V69.74z" fill="#434E66"/><path d="M54.069,54.132c3.071,0,5.569-2.498,5.569-5.569s-2.499-5.569-5.569-5.569S48.5,45.493,48.5,48.563   S50.998,54.132,54.069,54.132z M54.069,45.994c1.417,0,2.569,1.153,2.569,2.569s-1.153,2.569-2.569,2.569S51.5,49.98,51.5,48.563   S52.652,45.994,54.069,45.994z" fill="#434E66"/><path d="M72.876,41.479H60.622c-0.069,0-0.135,0.011-0.201,0.02c-2.623-2.762-6.319-4.496-10.42-4.496   c-2.12,0-4.163,0.451-6.072,1.341c-0.75,0.35-1.076,1.242-0.726,1.993c0.35,0.75,1.242,1.076,1.993,0.726   c1.509-0.703,3.125-1.06,4.805-1.06c6.278,0,11.386,5.107,11.386,11.385c0,6.278-5.107,11.386-11.386,11.386   s-11.386-5.107-11.386-11.386c0-1.103,0.157-2.194,0.467-3.241c0.235-0.794-0.218-1.629-1.012-1.864   c-0.794-0.236-1.629,0.218-1.864,1.012c-0.393,1.324-0.591,2.701-0.591,4.093c0,7.932,6.454,14.386,14.386,14.386   s14.386-6.454,14.386-14.386c0-2.503-0.645-4.857-1.774-6.909h10.264c0.829,0,1.5-0.671,1.5-1.5S73.705,41.479,72.876,41.479z" fill="#434E66"/></g></svg>